<?xml version="1.0" encoding="UTF-8" standalone="no"?>
<!-- Created with Inkscape (http://www.inkscape.org/) -->
<svg
   xmlns:dc="http://purl.org/dc/elements/1.1/"
   xmlns:cc="http://creativecommons.org/ns#"
   xmlns:rdf="http://www.w3.org/1999/02/22-rdf-syntax-ns#"
   xmlns:svg="http://www.w3.org/2000/svg"
   xmlns="http://www.w3.org/2000/svg"
   xmlns:xlink="http://www.w3.org/1999/xlink"
   xmlns:sodipodi="http://sodipodi.sourceforge.net/DTD/sodipodi-0.dtd"
   xmlns:inkscape="http://www.inkscape.org/namespaces/inkscape"
   width="1052.3622"
   height="744.09448"
   id="svg2"
   sodipodi:version="0.32"
   inkscape:version="0.46"
   sodipodi:docname="hills.svg"
   inkscape:output_extension="org.inkscape.output.svg.inkscape"
   version="1.0">
  <defs
     id="defs4">
    <linearGradient
       inkscape:collect="always"
       id="linearGradient2424">
      <stop
         style="stop-color:#ffffff;stop-opacity:1;"
         offset="0"
         id="stop2426" />
      <stop
         style="stop-color:#ffffff;stop-opacity:0;"
         offset="1"
         id="stop2428" />
    </linearGradient>
    <linearGradient
       inkscape:collect="always"
       id="linearGradient2416">
      <stop
         style="stop-color:#ececec;stop-opacity:1;"
         offset="0"
         id="stop2418" />
      <stop
         style="stop-color:#ececec;stop-opacity:0;"
         offset="1"
         id="stop2420" />
    </linearGradient>
    <inkscape:perspective
       sodipodi:type="inkscape:persp3d"
       inkscape:vp_x="0 : 526.18109 : 1"
       inkscape:vp_y="0 : 1000 : 0"
       inkscape:vp_z="744.09448 : 526.18109 : 1"
       inkscape:persp3d-origin="372.04724 : 350.78739 : 1"
       id="perspective10" />
    <linearGradient
       inkscape:collect="always"
       xlink:href="#linearGradient2416"
       id="linearGradient2422"
       x1="385.71429"
       y1="289.80878"
       x2="385.71429"
       y2="624.09448"
       gradientUnits="userSpaceOnUse" />
    <linearGradient
       inkscape:collect="always"
       xlink:href="#linearGradient2424"
       id="linearGradient2430"
       x1="237.14285"
       y1="318.38019"
       x2="237.14285"
       y2="771.25763"
       gradientUnits="userSpaceOnUse" />
  </defs>
  <sodipodi:namedview
     id="base"
     pagecolor="#becfdb"
     bordercolor="#666666"
     borderopacity="1.0"
     gridtolerance="10000"
     guidetolerance="10"
     objecttolerance="10"
     inkscape:pageopacity="0"
     inkscape:pageshadow="2"
     inkscape:zoom="0.7"
     inkscape:cx="375"
     inkscape:cy="353.58849"
     inkscape:document-units="px"
     inkscape:current-layer="layer1"
     showgrid="false"
     showguides="true"
     inkscape:guide-bbox="true"
     inkscape:window-width="1280"
     inkscape:window-height="753"
     inkscape:window-x="-4"
     inkscape:window-y="-4">
    <sodipodi:guide
       orientation="0,1"
       position="55.55839,607.10168"
       id="guide2388" />
    <sodipodi:guide
       orientation="0,1"
       position="191.42857,549.28571"
       id="guide2392" />
  </sodipodi:namedview>
  <metadata
     id="metadata7">
    <rdf:RDF>
      <cc:Work
         rdf:about="">
        <dc:format>image/svg+xml</dc:format>
        <dc:type
           rdf:resource="http://purl.org/dc/dcmitype/StillImage" />
      </cc:Work>
    </rdf:RDF>
  </metadata>
  <g
     inkscape:label="Layer 1"
     inkscape:groupmode="layer"
     id="layer1">
    <path
       style="fill:url(#linearGradient2422);fill-opacity:1"
       d="M 414.4603,260.08663 C 414.15709,260.4779 414.83997,259.92469 414.4603,260.08663 z M 414.33011,260.65075 C 414.14139,261.70561 414.61189,259.70108 414.33011,260.65075 z M 440.2798,261.12809 C 440.71091,261.76886 440.14434,260.23256 440.2798,261.12809 z M 440.80053,261.86579 C 438.53633,262.80482 436.1812,261.5495 434.04273,262.81486 C 431.98903,263.26595 430.07967,261.47494 428.0139,262.69747 C 426.00426,263.05318 424.0512,261.77508 422.09766,262.95064 C 420.33408,263.41369 419.22547,260.39921 417.45449,262.03936 C 415.53301,264.29623 415.69549,261.2185 414.68571,262.02477 C 413.05269,262.06528 411.98986,263.81511 410.07749,263.42798 C 408.23084,263.95602 407.08579,266.35317 404.80139,265.31766 C 402.61792,264.5396 400.19879,263.54526 398.01392,264.7298 C 394.39633,265.39757 390.76481,266.68415 387.0352,265.81465 C 383.50178,264.81927 380.32772,267.18049 376.81427,267.21943 C 374.38556,267.39217 372.41785,269.72335 369.90423,268.43369 C 366.67633,267.94691 365.50424,272.7787 362.12697,272.45396 C 360.14517,271.3599 358.57832,272.76656 357.39701,274.3199 C 355.63146,274.68326 353.61206,274.45881 351.7716,275.243 C 349.98634,275.82858 347.95132,274.91444 346.59187,276.61979 C 343.91005,279.16802 339.78788,278.67656 336.95838,281.08939 C 332.6871,283.54272 329.47135,287.82516 324.44294,288.7472 C 316.55304,291.22927 309.98081,296.52563 302.14753,299.10516 C 297.02028,300.87075 292.37605,303.6641 288.01368,306.81757 C 279.20894,311.65603 268.83868,313.28985 260.76525,319.53651 C 253.38835,324.20941 244.85412,326.41272 236.68939,329.19017 C 220.9133,336.25856 205.69785,346.62772 187.86228,347.17865 C 169.65922,347.16979 151.81432,339.33637 138.73398,326.8268 C 136.48889,323.75762 134.91444,318.6938 130.28047,318.90877 C 125.93893,317.90107 125.16329,312.52136 121.20275,310.81437 C 115.67299,307.80987 109.97382,304.29293 103.41437,304.61948 C 90.253121,304.5731 79.034887,312.45252 66.541359,315.38021 C 47.723744,319.46438 30.982417,319.46438 10.163564,319.46438 C -10.979168,319.46438 -22.506098,327.04468 -20.944603,328.67692 C -19.821896,334.77303 -25.061507,339.8123 -24.905291,345.87376 C -24.245521,363.48942 -22.12009,381.0119 -19.636469,398.45724 C -15.993883,424.27129 -12.674726,450.55226 -16.415671,476.56155 C -18.887228,495.38421 -22.354818,514.15555 -22.356773,533.20605 C -13.115696,610.98337 -18.128366,691.99276 -6.7721533,769.27337 C -3.6201317,774.16906 18.652823,772.93666 23.609349,772.96187 C 114.41441,774.40728 205.23326,773.36502 296.04464,773.71342 C 545.18232,774.14525 858.6061,776.60593 1107.7439,776.77369 C 1121.2126,624.13011 1122.4106,489.42906 1133.8482,308.12393 C 1130.8097,304.2073 1125.0058,305.88642 1121.5677,308.3409 C 1108.7036,313.17243 1095.0839,315.71555 1081.5143,317.6195 C 1060.021,320.3509 1060.1933,319.46438 1044.9986,319.46438 C 1025.8273,319.46438 1004.7941,308.13983 998.45643,306.67101 C 996.87884,304.10647 994.3504,306.20397 992.23225,305.02402 C 990.65251,304.12504 987.26127,303.86321 986.74211,302.74306 C 984.77028,304.16089 986.70843,302.16929 983.53737,301.69409 C 981.12105,300.70795 979.28815,302.33722 977.67259,302.15329 C 975.89923,301.66162 973.20493,301.79183 971.00228,302.11914 C 968.59735,301.94216 966.253,301.40399 964.3091,303.28767 C 962.33786,305.15693 959.90537,304.66218 957.48053,304.2067 C 955.92137,301.86232 953.87128,305.82581 952.8182,303.68411 C 952.73233,303.41196 949.46612,303.58963 948.31654,304.47062 C 945.15941,306.27873 948.5854,302.99468 944.47622,305.12974 C 942.74212,304.71099 942.91041,309.27605 942.08955,307.68999 C 941.48356,307.62169 939.68246,308.01212 940.14225,309.55533 C 939.92643,309.42999 935.12471,306.77887 938.05389,306.47496 C 935.68892,306.30692 933.81714,306.73764 931.93532,308.25412 C 934.17676,310.76013 929.08534,309.1612 929.65488,308.46212 C 930.69555,311.53555 930.10663,309.76694 928.24393,310.83988 C 923.78025,312.78294 931.30853,310.80254 927.5081,311.94282 C 926.4479,313.00968 926.29422,312.90849 924.47153,310.98795 C 922.70419,309.40373 921.04509,313.20605 921.91345,311.57064 C 921.46536,313.74223 918.39618,312.37589 916.62697,313.29492 C 917.67592,316.6648 913.81532,311.44333 914.06007,314.87888 C 913.53557,316.88272 913.52204,315.72245 913.23245,313.98214 C 909.94291,314.22762 911.37065,315.91022 912.27342,315.79845 C 912.86319,317.67396 909.04986,313.21003 909.59652,316.00077 C 909.38453,314.01881 908.1077,314.07861 908.50249,316.58579 C 906.83662,317.86063 904.78295,314.08862 905.08368,317.65152 C 903.91269,315.02935 901.51273,317.84158 903.19478,317.38051 C 901.70337,318.91553 903.29028,319.22611 901.55943,319.40641 C 900.36042,319.41865 899.50411,320.08665 898.8256,321.6629 C 896.5926,318.99796 896.84553,322.92253 895.16799,321.2754 C 893.55212,320.86875 892.92502,322.62006 891.57878,323.22509 C 891.54174,323.65363 889.88902,323.34228 888.93173,322.35721 C 888.03388,323.19243 887.93459,322.11152 886.37148,323.31188 C 886.38071,322.70974 884.31117,321.31986 883.6606,322.7988 C 881.79427,322.74188 881.98591,323.04556 879.73218,323.35527 C 878.44861,323.44782 876.57528,324.21599 875.65313,323.70243 C 874.71523,323.60425 873.69323,321.9123 873.00609,321.74969 C 871.78101,322.31562 870.19058,321.3226 868.31952,322.05345 C 866.63727,322.51007 865.75931,319.88194 864.54423,321.09878 C 862.92476,322.27672 861.36771,318.65472 860.3784,320.9686 C 858.54255,322.16218 857.15756,318.77551 855.21449,319.92714 C 853.44182,318.95697 852.01299,316.97713 849.76625,317.42912 C 846.829,316.20486 843.72238,315.42594 841.18919,313.52575 C 838.71306,312.71216 836.14625,311.84404 834.03816,310.25025 C 831.04318,306.98566 825.94544,306.93363 822.66889,304.39204 C 821.21374,302.69981 818.57607,302.81917 817.09251,301.10015 C 814.53,299.2218 811.24235,300.03017 808.47901,299.05456 C 805.94559,298.06642 804.96049,295.42706 803.66226,293.36993 C 801.85347,292.3026 800.25201,294.42841 798.67194,292.8058 C 796.59501,292.83581 794.79305,292.68552 793.37844,291.02694 C 792.19527,289.39859 789.97589,292.26298 789.43664,289.96475 C 787.68009,288.72781 786.75143,286.31457 784.82921,285.51559 C 783.08846,286.23535 781.22596,286.29823 779.92567,286.9042 C 778.84817,284.854 777.09503,285.03231 775.2825,285.86274 C 772.2989,286.15027 770.45242,283.13406 767.81871,282.60818 C 766.11943,283.67671 764.2124,285.19513 762.30766,283.43267 C 760.2677,282.90807 760.20541,280.83491 759.40025,279.70078 C 758.18199,280.68307 756.58345,281.86447 754.93065,282.04406 C 753.37699,281.61087 751.49545,281.00409 750.50445,279.61399 C 749.758,277.03095 748.34148,279.26803 746.98953,279.70078 C 745.27897,278.97767 743.49734,278.56345 741.78223,277.96501 C 741.80669,280.27107 739.58702,280.07916 738.88982,278.14246 C 737.58208,276.54418 735.65013,280.56866 733.94647,278.58414 C 731.88129,277.65475 729.8425,276.55942 727.89611,275.53494 C 725.34988,274.98381 722.48592,276.90853 720.30214,275.0576 C 718.46918,275.01835 716.79604,275.38561 715.3986,274.01615 C 713.11278,273.50433 710.74247,274.88854 708.58572,273.71239 C 706.29401,273.97108 703.85597,276.60059 701.72945,274.45009 C 698.97251,273.00818 696.22418,275.63584 693.35438,274.71045 C 690.52917,274.45878 688.22494,276.53151 685.36986,275.92549 C 682.8908,275.56895 680.93376,277.07098 678.81735,277.87822 C 668.44676,280.01046 658.90794,284.86469 649.1901,288.91151 C 641.8388,292.40929 633.83355,294.18803 626.04756,296.36323 C 620.15891,298.95175 613.70697,299.0764 607.39466,298.99538 C 604.79854,299.14776 602.38674,300.58091 599.70984,299.74887 C 594.20046,299.67576 588.65051,299.90077 583.17608,298.93232 C 579.26214,298.42895 575.33656,298.28202 571.64795,296.79304 C 564.15796,295.38394 556.65303,293.9363 549.5283,291.13639 C 546.50804,290.19977 543.36413,289.66975 541.04098,287.33814 C 538.61747,285.57736 535.39713,286.97338 532.85766,285.31457 C 529.523,283.5573 526.0389,281.89251 522.26219,281.64506 C 516.92327,279.54322 511.04018,277.88442 506.97658,273.6256 C 505.15643,272.28187 503.14318,274.96247 501.33593,273.19195 C 499.78753,271.96143 497.16114,274.12053 496.25823,271.67286 C 495.6389,268.21375 491.37498,267.25764 488.75105,269.11261 C 484.91906,269.17276 481.15437,268.37191 477.74477,266.67072 C 473.16216,265.10546 468.29805,266.99477 463.72455,265.63341 C 460.70636,265.69264 458.08776,264.02022 455.20739,263.64495 C 451.65454,264.31429 447.64885,264.8172 444.66261,262.25634 C 443.42859,261.48611 442.16236,261.08235 440.80053,261.86579 z M 943.04422,306.34477 C 944.06067,304.83575 941.46645,306.34598 943.04422,306.34477 z M 436.54791,261.56203 C 436.49938,262.13365 436.71972,261.05878 436.54791,261.56203 z M 412.68114,261.86579 C 411.69283,262.73563 413.29948,261.80751 412.68114,261.86579 z M 430.64631,262.90725 C 430.65283,263.28265 430.33005,262.43715 430.64631,262.90725 z M 424.44095,262.82046 C 425.66556,263.2454 423.77787,262.91613 424.44095,262.82046 z M 436.28754,263.12422 C 436.00821,263.67315 436.42806,262.3917 436.28754,263.12422 z M 446.65874,263.2544 C 446.63823,263.57763 446.8711,262.93012 446.65874,263.2544 z M 436.80827,263.38458 C 437.70254,264.2537 436.49364,263.66181 436.80827,263.38458 z M 440.54017,263.47137 C 441.24794,263.5993 440.67109,263.80649 440.54017,263.47137 z M 438.89119,263.73174 C 439.09015,264.19302 437.93006,262.92477 438.89119,263.73174 z M 419.10347,263.60155 C 419.42581,263.8622 418.67914,263.54706 419.10347,263.60155 z M 406.08523,264.38265 C 405.32477,265.26933 407.50299,263.54605 406.08523,264.38265 z M 388.38042,265.68447 C 388.61886,265.79483 388.27007,265.44603 388.38042,265.68447 z M 378.35638,265.94484 C 378.64431,265.94118 378.46118,265.20487 378.35638,265.94484 z M 407.30026,265.98823 C 408.3067,266.585 406.66253,266.01384 407.30026,265.98823 z M 390.46334,267.33345 C 390.90223,267.83986 389.23482,266.55923 390.46334,267.33345 z M 378.35638,267.42024 C 378.4734,267.81913 378.04634,267.38161 378.35638,267.42024 z M 371.19635,269.28619 C 371.52438,270.19424 370.66117,268.26985 371.19635,269.28619 z M 369.24361,269.1994 C 369.29235,269.53902 369.0245,268.74061 369.24361,269.1994 z M 357.4838,272.02002 C 356.93201,271.83608 357.00883,271.86169 357.4838,272.02002 z M 751.02518,280.78563 C 751.74594,281.30573 750.97711,281.82663 751.02518,280.78563 z M 777.539,284.25716 C 778.74771,285.33999 778.75938,284.5416 777.539,284.25716 z M 787.17249,286.34008 C 786.27047,287.73531 787.7153,287.2266 787.17249,286.34008 z M 781.83502,287.94566 C 781.79369,289.47261 781.52995,286.16995 781.83502,287.94566 z M 789.64596,291.63416 C 789.61469,292.58845 788.66647,291.8887 789.64596,291.63416 z M 799.62661,294.54157 C 798.16853,295.60221 800.82961,293.13116 799.62661,294.54157 z M 800.53789,294.36799 C 799.97926,295.93579 800.27005,294.46377 800.53789,294.36799 z M 958.57932,300.92051 C 959.08095,301.91786 961.50427,302.31926 960.9618,301.18243 C 960.44775,301.25184 958.90349,299.51372 958.57932,300.92051 z M 960.05472,301.26766 C 960.15349,301.50611 959.81626,301.16889 960.05472,301.26766 z M 986.35156,302.82985 C 986.89556,302.50451 985.18793,301.67457 986.35156,302.82985 z M 965.69595,303.74113 C 965.97984,307.4108 964.24355,300.94577 965.69595,303.74113 z M 951.3325,303.9147 C 951.09961,306.39437 950.90039,306.23774 951.3325,303.9147 z M 111.43907,304.95616 C 111.97267,305.57637 112.11448,305.05542 111.43907,304.95616 z M 945.47429,307.12587 C 944.22899,307.27034 944.74336,305.35233 945.47429,307.12587 z M 935.0597,309.42576 C 934.30319,306.93184 935.215,306.56217 935.05589,309.31906 L 935.0597,309.42576 z M 944.86677,307.21266 C 943.86664,308.17545 941.75192,306.50092 944.76287,307.20824 L 944.86677,307.21266 z M 925.03565,309.90309 C 925.5752,310.17952 925.67382,308.09631 925.03565,309.90309 z M 928.24682,309.72952 C 928.90999,309.4104 926.92986,308.87423 928.24682,309.72952 z M 927.46572,310.20685 C 925.85832,311.16691 928.96484,310.07354 927.46572,310.20685 z M 930.89386,310.90116 C 928.9876,310.52977 928.57166,310.2601 930.89386,310.90116 z M 1009.8712,311.59546 C 1009.229,311.8847 1009.4334,310.92822 1009.8712,311.59546 z M 911.93062,314.93681 C 911.20768,317.72228 911.90224,313.57024 911.93062,314.93681 z M 913.10227,316.28203 C 912.00798,314.86076 911.9053,313.99203 913.10227,316.28203 z M 129.0137,317.88761 C 129.56341,318.45542 128.95166,317.38107 129.0137,317.88761 z M 902.08016,318.97247 C 902.75049,319.00792 901.64678,317.96325 902.08016,318.97247 z M 894.356,322.35721 C 894.44693,323.53091 893.03304,321.36191 894.356,322.35721 z"
       id="rect2385"
       sodipodi:nodetypes="cscscsccccccccccccssssssccccccccccsccscccccccccscccccccccccccccccccccccccccccccccccccccccccccccccccccccccccccccccccccccccccccccccccccccccccccccccccccccccccccccccccccccccccccccccccccccccccccccccccccccccccccccccccccccccccccccccccccccccc" />
    <path
       style="fill:url(#linearGradient2430);fill-opacity:1"
       d="M 197.30439,275.3802 C 184.20668,275.76687 171.43971,281.23592 161.89723,290.17512 C 152.6364,298.36156 143.2715,306.84262 131.89574,311.99348 C 126.553,314.44818 120.79804,315.76828 115.20462,317.51019 C 109.7904,319.13223 104.20444,320.00817 98.662809,321.0454 C 94.03362,322.07315 89.340146,322.80015 84.600622,323.00183 C 72.046356,324.13124 59.507405,326.0018 46.870594,325.64374 C 30.428992,325.5984 13.913511,325.74732 -2.4173654,323.56796 C -110.83977,291.39666 -21.648059,763.69509 11.363814,789.81224 C 125.33595,789.65444 314.51917,781.49128 428.49143,781.45521 C 604.91152,781.11543 781.33165,780.76507 957.75145,780.30946 C 994.45315,780.11558 1031.1591,780.10825 1067.8554,779.43128 C 1071.448,779.2312 1075.5396,779.38036 1078.2701,776.61027 C 1081.3594,773.76566 1082.5666,769.53657 1082.9371,765.4801 C 1089.8357,729.93757 1096.8369,694.39743 1102.1067,658.56786 C 1106.7854,627.05071 1110.1069,595.27667 1110.4972,563.39374 C 1110.7782,541.87382 1109.5563,520.35212 1107.2746,498.95669 C 1105.5188,482.76667 1103.8592,466.50324 1104.4144,450.19471 C 1104.7766,436.52723 1106.5646,422.95552 1108.0568,409.37953 C 1110.2396,391.05339 1112.5501,372.64695 1112.1823,354.15673 C 1111.767,347.57617 1110.5432,341.05099 1110.5431,334.44642 C 1109.8844,331.39941 1106.6488,329.96006 1103.7942,329.83179 C 1099.2276,329.14881 1094.5796,329.52133 1090.0083,328.86386 C 1081.7172,328.21826 1073.419,327.66175 1065.1003,327.58444 C 1052.5999,327.29295 1040.1234,326.41064 1027.6542,325.5164 C 1024.1384,325.25829 1020.6228,325.06351 1017.1092,325.46488 C 1011.7077,325.84595 1006.2884,325.33126 1000.879,325.31336 C 999.01053,324.99576 997.12918,325.26737 995.26246,325.3509 C 993.69514,325.53716 992.39712,324.68886 990.97796,324.29194 C 989.35667,324.04757 987.80917,324.87539 986.15601,324.39118 C 984.55488,324.29374 982.87256,323.74095 981.30687,324.1747 C 980.30525,325.04911 979.28331,323.34785 978.14627,323.65515 C 976.45101,323.57581 974.692,323.78871 973.14112,322.93293 C 971.07291,322.70256 968.89388,322.89503 966.985,321.85721 C 964.80049,320.76725 962.17076,321.28281 959.89382,320.37446 C 957.40252,319.2622 954.73888,318.67753 952.03883,318.32975 C 946.33063,316.94139 940.61518,315.59029 934.89365,314.25994 C 932.50837,313.66727 929.83723,314.17041 927.70653,312.74458 C 926.55442,311.96409 925.20725,312.29134 923.95696,312.06566 C 922.62313,311.31123 921.27987,311.95263 919.91976,312.13844 C 917.89911,312.28652 916.14491,310.9825 914.11842,311.25987 C 912.39903,311.11956 910.63253,311.12661 908.94209,310.95863 C 907.35038,310.14404 905.59385,310.60913 903.98036,311.01274 C 902.44954,310.9971 900.97834,311.00528 899.66795,311.86485 C 898.29068,312.28837 897.03575,310.99646 895.64251,311.73845 C 893.72668,312.37447 891.82147,313.45519 889.73601,312.91776 C 887.6928,313.16993 886.06572,314.74467 883.93435,314.6929 C 882.13891,314.72907 880.41956,315.25191 878.95952,316.2698 C 875.46553,317.90849 872.03619,319.74875 868.26123,320.66773 C 866.38948,321.61872 864.85317,323.14322 862.90402,323.93614 C 861.21757,325.04123 859.08793,325.40435 857.78362,327.07553 C 856.30818,328.43681 854.31827,329.00824 852.90688,330.47519 C 851.2277,332.25578 848.77703,332.80472 846.90699,334.32345 C 845.17518,335.38541 843.49285,336.46656 841.85932,337.65997 C 840.50402,338.19601 839.57329,339.69226 838.01152,339.44856 C 836.30854,339.54244 834.89773,340.58139 833.84098,341.83944 C 832.56342,342.30845 831.22959,342.53225 830.00306,343.16166 C 827.28014,343.7885 824.68068,344.9093 821.84801,345.04333 C 817.97065,345.81483 814.03244,345.2326 810.12175,345.37484 C 807.88322,345.18169 805.68652,344.66628 803.46442,344.40771 C 801.18707,343.61299 798.87392,343.00144 796.465,342.79073 C 787.55329,341.37806 778.70909,339.06832 769.62256,339.21865 C 766.78714,339.1254 763.86671,339.20081 761.19767,340.21362 C 759.67048,340.27046 757.97403,340.01677 756.71364,341.07093 C 753.99399,342.16402 750.72169,342.1842 748.58789,344.43297 C 746.85226,345.2171 744.36015,344.24891 743.2447,346.25509 C 742.11121,347.65263 740.41736,348.34897 738.66336,348.46435 C 736.9195,348.82097 735.5293,350.0569 734.09591,350.92176 C 731.62217,351.20078 730.1419,353.80253 727.56759,353.86075 C 725.94711,354.27041 723.94431,354.10429 722.63039,355.14134 C 721.48707,356.80027 719.07405,355.76063 717.56439,356.84611 C 716.13063,357.21604 714.59167,356.0736 713.21425,356.98001 C 710.64242,357.98191 707.77863,357.82997 705.2521,356.77653 C 702.18507,356.05945 698.79717,356.55431 696.00974,354.86828 C 692.81272,353.69632 689.35004,353.28415 686.34396,351.59447 C 684.42764,351.09362 682.75794,349.99317 680.9066,349.37229 C 678.91246,349.07476 677.12431,348.19324 675.29132,347.42461 C 673.36707,346.91268 671.29549,346.61773 669.73313,345.28993 C 666.52794,344.00142 662.80205,344.15741 659.89431,342.10342 C 650.3075,337.74008 640.07814,335.01773 630.44182,330.77502 C 621.98576,327.32175 613.38732,324.11914 604.46869,322.09057 C 598.45279,320.3988 592.6841,317.92175 586.68809,316.19221 C 585.11139,315.8251 583.34112,315.72578 582.30484,314.31074 C 581.51558,313.55241 580.38612,313.30475 579.39087,313.78368 C 577.48504,313.90136 576.6317,311.09094 574.59333,311.77895 C 568.82288,312.56648 563.70665,308.64058 557.96666,308.91474 C 551.59318,308.39283 545.14046,308.38912 538.84498,309.63421 C 527.84765,311.44689 517.61549,316.11447 507.43302,320.44671 C 501.70725,323.00851 495.84658,325.27841 490.0493,327.64752 C 486.00587,329.61605 481.32324,329.99455 477.49827,332.45504 C 474.32024,333.7868 470.80171,333.88385 467.51628,334.86784 C 462.62323,335.92675 457.69743,336.93957 452.73512,337.57507 C 448.56699,337.7961 444.36435,337.92562 440.20337,337.60512 C 437.07954,337.35618 434.16785,336.09838 431.10235,335.60482 C 427.84511,335.55093 424.75632,334.54973 421.72014,333.46621 C 416.73036,331.74909 411.47442,331.07516 406.38035,329.73988 C 394.9577,327.06888 383.52791,324.38424 371.93011,322.57306 C 352.54093,319.15573 333.01268,316.35288 313.90371,311.52728 C 305.99239,309.87813 298.13718,307.64147 290.97984,303.81064 C 285.45106,301.03134 279.87967,298.31155 274.01582,296.30369 C 255.8755,289.34515 237.90316,281.51829 218.79046,277.58259 C 211.72721,276.11669 204.52821,275.20322 197.30439,275.3802 z M 731.61931,351.45113 C 732.26076,351.21787 732.26198,351.21744 731.61931,351.45113 z"
       id="path2390"
       sodipodi:nodetypes="ccccsccccccccccccccccccccccccccccccccccccccccccccccccccccccccccccccccccccccccccccccccccccccccccccccccccc" />
  </g>
</svg>
