<?xml version="1.0" encoding="UTF-8" standalone="no"?>
<!-- Created with Inkscape (http://www.inkscape.org/) -->
<svg
   xmlns:dc="http://purl.org/dc/elements/1.1/"
   xmlns:cc="http://creativecommons.org/ns#"
   xmlns:rdf="http://www.w3.org/1999/02/22-rdf-syntax-ns#"
   xmlns:svg="http://www.w3.org/2000/svg"
   xmlns="http://www.w3.org/2000/svg"
   xmlns:sodipodi="http://sodipodi.sourceforge.net/DTD/sodipodi-0.dtd"
   xmlns:inkscape="http://www.inkscape.org/namespaces/inkscape"
   width="744.09448819"
   height="1052.3622047"
   id="svg2"
   sodipodi:version="0.32"
   inkscape:version="0.46"
   sodipodi:docname="title.svg"
   inkscape:output_extension="org.inkscape.output.svg.inkscape"
   inkscape:export-filename="/Users/dan/git/love/xmas2009/love/graphics/title.png"
   inkscape:export-xdpi="176.97041"
   inkscape:export-ydpi="176.97041">
  <defs
     id="defs4">
    <inkscape:perspective
       id="perspective2743"
       inkscape:persp3d-origin="378.0272 : 502.69422 : 1"
       inkscape:vp_z="572.38937 : 669.35785 : 1"
       inkscape:vp_y="-83.678206 : 710.80552 : 0"
       inkscape:vp_x="114.42793 : 597.96285 : 1"
       sodipodi:type="inkscape:persp3d" />
    <inkscape:perspective
       id="perspective2727"
       inkscape:persp3d-origin="360.53417 : 441.44378 : 1"
       inkscape:vp_z="560.57986 : 642.01628 : 1"
       inkscape:vp_y="-86.125116 : 855.4238 : 0"
       inkscape:vp_x="122.56178 : 588.42035 : 1"
       sodipodi:type="inkscape:persp3d" />
    <inkscape:perspective
       sodipodi:type="inkscape:persp3d"
       inkscape:vp_x="39.039318 : 564.17669 : 1"
       inkscape:vp_y="-105.96738 : 855.4238 : 0"
       inkscape:vp_z="618.98691 : 650.0975 : 1"
       inkscape:persp3d-origin="372.85293 : 449.525 : 1"
       id="perspective10" />
    <filter
       id="filter2805"
       inkscape:label="filter1">
      <feColorMatrix
         id="feColorMatrix2807"
         type="hueRotate"
         values="240.88235294117646" />
    </filter>
    <filter
       id="filter2809"
       inkscape:label="filter2">
      <feColorMatrix
         id="feColorMatrix2811"
         type="hueRotate"
         values="119.11764705882352" />
    </filter>
    <filter
       id="filter2813"
       inkscape:label="filter3">
      <feColorMatrix
         id="feColorMatrix2815"
         type="saturate" />
    </filter>
  </defs>
  <sodipodi:namedview
     id="base"
     pagecolor="#ffffff"
     bordercolor="#666666"
     borderopacity="1.0"
     gridtolerance="10000"
     guidetolerance="10"
     objecttolerance="10"
     inkscape:pageopacity="0.0"
     inkscape:pageshadow="2"
     inkscape:zoom="0.98994949"
     inkscape:cx="375"
     inkscape:cy="729.33918"
     inkscape:document-units="px"
     inkscape:current-layer="layer1"
     showgrid="false"
     inkscape:window-width="1301"
     inkscape:window-height="1098"
     inkscape:window-x="24"
     inkscape:window-y="42" />
  <metadata
     id="metadata7">
    <rdf:RDF>
      <cc:Work
         rdf:about="">
        <dc:format>image/svg+xml</dc:format>
        <dc:type
           rdf:resource="http://purl.org/dc/dcmitype/StillImage" />
      </cc:Work>
    </rdf:RDF>
  </metadata>
  <g
     inkscape:label="Layer 1"
     inkscape:groupmode="layer"
     id="layer1">
    <text
       xml:space="preserve"
       style="font-size:54.69425201px;font-style:normal;font-variant:normal;font-weight:normal;font-stretch:normal;fill:#000000;fill-opacity:1;stroke:none;stroke-width:1px;stroke-linecap:butt;stroke-linejoin:miter;stroke-opacity:1;font-family:Futura;-inkscape-font-specification:Futura"
       x="70.542435"
       y="229.2007"
       id="text2383"><tspan
         sodipodi:role="line"
         id="tspan2385"
         x="70.542435"
         y="229.2007"
         style="font-style:normal;font-variant:normal;font-weight:normal;font-stretch:normal;font-family:Marker Felt;-inkscape-font-specification:Marker Felt">Santa's</tspan></text>
    <path
       style="font-size:93.40884399px;font-style:normal;font-variant:normal;font-weight:normal;font-stretch:normal;fill:#000000;fill-opacity:1;stroke:none;stroke-width:1px;stroke-linecap:butt;stroke-linejoin:miter;stroke-opacity:1;font-family:Futura;-inkscape-font-specification:Futura"
       d="M 84.0942,239.05127 C 82.615438,238.74747 81.395977,238.90492 80.462245,239.52027 C 79.174459,240.42995 78.368679,241.82242 77.992471,243.65318 C 77.485992,246.11782 77.708009,248.64921 78.709245,251.27674 C 77.652894,256.41718 75.926999,266.0795 73.525862,280.26398 C 70.643308,297.50537 69.161676,308.1453 69.06998,312.16288 C 67.260352,313.11203 66.206596,314.26834 65.9172,315.67666 C 65.656726,316.94416 65.940969,318.44934 66.763755,320.15961 C 69.09126,325.26146 72.601562,328.57988 77.274111,330.12719 C 79.680777,330.9153 82.0005,330.27909 84.252921,328.24671 C 86.097264,326.05707 87.961893,323.84321 89.82076,321.58315 C 99.8248,314.68541 105.36887,310.81607 106.50139,309.94794 C 112.23602,305.25523 115.5883,300.67608 116.5,296.23985 C 116.91957,294.1978 116.8592,292.14481 116.33455,290.05542 C 115.82426,287.89569 114.15283,285.91995 111.35651,284.17102 C 108.31989,282.51961 105.27816,280.89263 102.24163,279.24114 C 111.86271,272.77848 117.44412,265.83777 118.96357,258.44402 C 119.45549,256.04994 119.36782,253.76873 118.71681,251.57996 C 117.73386,248.1489 114.8164,245.91713 109.95775,244.91859 C 105.66231,244.03598 99.845838,244.17617 92.494573,245.30748 C 90.693675,241.9285 87.896645,239.83275 84.0942,239.05127 z M 101.15045,256.77224 C 102.48831,257.04723 103.04756,257.75572 102.81608,258.88231 C 102.48322,260.50195 100.76097,262.74507 97.672285,265.63301 C 94.668409,268.4651 91.520194,270.78616 88.211584,272.60146 C 88.44308,271.47485 88.840064,269.18196 89.408311,265.70257 C 89.990962,262.15288 90.35133,260.03821 90.481591,259.40441 C 95.836133,257.27567 99.390006,256.41054 101.15045,256.77224 z M 97.856285,291.08277 C 100.46164,291.61821 101.54579,292.8426 101.15513,294.74383 C 100.34476,298.68715 94.103893,303.60039 82.399265,309.48816 L 85.271984,293.35816 C 89.57029,291.01234 93.772113,290.24352 97.856285,291.08277 z"
       id="path2436" />
    <path
       style="font-size:93.40884399px;font-style:normal;font-variant:normal;font-weight:normal;font-stretch:normal;fill:#000000;fill-opacity:1;stroke:none;stroke-width:1px;stroke-linecap:butt;stroke-linejoin:miter;stroke-opacity:1;font-family:Futura;-inkscape-font-specification:Futura"
       d="M 228.6832,327.33443 C 228.84287,333.03523 226.32345,336.11355 221.12492,336.56942 C 219.03193,336.75294 216.89459,336.43011 214.7129,335.60093 C 212.53704,334.83926 210.95995,333.92303 209.98168,332.85226 C 209.3764,332.15697 209.04122,331.438 208.97614,330.69534 C 208.92874,330.15524 209.03831,329.46529 209.30488,328.62551 C 209.63296,327.71232 209.77926,327.05317 209.74378,326.64808 C 209.70821,326.243 209.57439,325.88056 209.34229,325.56073 L 187.36037,293.76453 L 177.91124,318.67689 C 177.5831,319.59011 177.62511,320.84504 178.03727,322.4417 C 178.41387,323.63326 178.23262,324.66966 177.49351,325.55087 C 176.50799,326.72582 174.83375,327.4169 172.47078,327.6241 C 169.70268,327.86684 167.04418,327.41964 164.49528,326.28248 C 161.74383,325.16309 160.28225,323.62445 160.11056,321.66653 C 160.06912,321.19394 160.12895,320.71246 160.29005,320.22209 C 160.48907,319.38825 161.00669,318.69655 161.84293,318.14698 C 162.67325,317.52991 163.20273,316.97323 163.43134,316.47694 L 177.69913,281.34522 L 158.62907,252.40251 C 158.39101,252.01526 157.7141,251.66642 156.59835,251.35598 C 155.5442,250.97226 154.91113,250.34744 154.69913,249.48153 C 154.34266,247.744 155.64916,245.96262 158.61864,244.13738 C 161.3915,242.39757 164.19574,241.40332 167.03133,241.15458 C 168.11154,241.05994 169.00403,241.15176 169.70878,241.43003 C 170.83636,241.87552 171.60919,242.9303 172.02726,244.59438 C 172.63954,246.92194 176.91343,254.54105 184.84891,267.45178 L 191.5369,248.29223 C 191.75365,247.661 191.94793,246.38536 192.11977,244.46527 C 192.25955,242.95636 192.66822,241.79798 193.34579,240.99011 C 194.33717,239.88277 195.94686,239.23136 198.17487,239.03591 C 200.80787,238.8051 203.22711,239.23928 205.43258,240.33842 C 207.85825,241.62253 209.06457,243.35365 209.05152,245.53179 C 209.00286,247.30499 208.36678,248.58537 207.14326,249.37292 C 205.58799,250.25773 204.702,251.01575 204.48528,251.64699 L 193.69997,279.94211 L 223.76548,322.45907 C 224.00349,322.84641 224.98005,323.50915 226.69517,324.44727 C 227.9755,325.08337 228.63817,326.04576 228.6832,327.33443"
       id="path2426"
       sodipodi:nodetypes="csccscsccccsscsccccccccsscccscscccccccc" />
    <path
       style="font-size:93.40884399px;font-style:normal;font-variant:normal;font-weight:normal;font-stretch:normal;fill:#000000;fill-opacity:1;stroke:none;stroke-width:1px;stroke-linecap:butt;stroke-linejoin:miter;stroke-opacity:1;font-family:Futura;-inkscape-font-specification:Futura"
       d="M 247.13238,293.12853 C 246.31658,297.9168 244.06548,301.86042 240.37909,304.9594 C 236.76444,308.00744 232.71648,309.14973 228.23519,308.38628 C 219.21112,306.8489 213.3133,301.42224 210.54171,292.10629 C 206.45005,288.3139 204.58202,285.37411 204.93761,283.28691 C 205.1154,282.24333 205.90639,281.49371 207.31059,281.03804 C 210.05757,280.11632 212.47467,279.83324 214.56187,280.1888 C 219.10457,280.96274 221.68311,284.1815 222.2975,289.8451 C 222.78313,291.44391 223.29949,293.04796 223.84655,294.65722 C 224.39357,296.2665 225.34236,297.18617 226.69292,297.41625 C 230.31479,298.0333 232.56498,295.76353 233.44352,290.60692 C 234.22786,286.00283 233.92727,282.76155 232.54174,280.88307 C 231.92009,280.08232 229.21401,278.1684 224.42348,275.14129 C 220.6033,272.72174 217.79034,269.21037 215.98462,264.60715 C 214.36167,260.41418 213.86985,256.25594 214.50919,252.13244 C 215.57728,245.49212 218.23876,239.88125 222.49362,235.2998 C 226.99535,230.38153 231.88591,228.37206 237.16532,229.27141 C 243.30409,230.31731 247.36708,233.53629 249.35431,238.92835 C 250.67298,242.31157 251.06816,246.29541 250.53984,250.87991 C 250.81765,253.32775 250.79447,255.50316 250.47031,257.40614 C 250.2611,258.63394 249.93507,259.6207 249.49222,260.36641 C 248.18439,262.48093 246.17996,263.3081 243.47894,262.84789 C 241.45309,262.50281 239.73694,261.4524 238.33051,259.69667 C 236.76075,257.78687 236.0068,255.35272 236.06866,252.39423 C 236.05179,251.3807 236.40329,250.42987 237.12315,249.54173 C 237.90433,248.66416 238.30539,248.16395 238.32635,248.04113 C 238.34723,247.9184 238.30676,247.78517 238.20493,247.64143 C 238.31858,247.345 238.40156,247.04329 238.45389,246.7363 C 238.7676,244.8947 237.83972,243.85226 235.67027,243.60893 C 233.56212,243.37618 231.70003,244.48027 230.08397,246.92119 C 228.65339,249.01481 227.74851,251.54536 227.36931,254.51285 C 226.66449,259.76225 229.39105,264.52231 235.549,268.79302 C 240.41,272.14799 243.64948,275.19508 245.26745,277.93432 C 247.56698,281.86361 248.18862,286.92834 247.13238,293.12853"
       id="path2424" />
    <path
       style="font-size:93.40884399px;font-style:normal;font-variant:normal;font-weight:normal;font-stretch:normal;fill:#000000;fill-opacity:1;stroke:none;stroke-width:1px;stroke-linecap:butt;stroke-linejoin:miter;stroke-opacity:1;font-family:Futura;-inkscape-font-specification:Futura"
       d="M 276.35292,259.27457 C 273.81057,259.50975 270.92494,260.44067 267.70267,262.11442 C 264.53665,263.72058 262.74824,264.54982 262.3762,264.58413 C 259.3034,264.49314 257.56186,264.46451 257.12783,264.50458 C 255.76365,264.6308 254.50153,265.00041 253.30724,265.61109 C 251.75238,266.38033 251.01859,267.33331 251.12181,268.44938 C 251.15049,268.75949 251.2851,269.1896 251.52272,269.73041 C 251.76035,270.27135 251.88629,270.60765 251.90349,270.79362 L 259.15767,330.9123 C 259.1806,331.16035 258.88508,331.72506 258.27756,332.59424 C 257.72629,333.39569 257.49112,334.27094 257.57713,335.20107 C 257.6058,335.5111 257.67191,335.88433 257.77407,336.31265 C 258.2332,337.89619 259.51201,339.07424 261.65001,339.87714 C 263.53424,340.64096 265.52104,340.93141 267.56731,340.74219 C 268.80746,340.62751 269.76193,340.34956 270.47165,339.90871 C 272.0093,338.95351 272.73436,337.90629 272.62542,336.72812 C 272.57953,336.23206 272.35324,335.49429 271.95148,334.53085 C 271.54968,333.56739 271.32628,332.86098 271.28617,332.42692 C 270.40483,327.63045 269.79118,323.38753 269.44715,319.66705 C 269.24644,317.49679 269.17237,315.67015 269.22651,314.22675 C 269.82578,315.29705 270.6302,315.79166 271.62234,315.6999 C 275.52882,315.33867 279.9964,308.95045 285.03999,296.53922 C 289.89282,284.77108 292.07118,276.19186 291.57235,270.79709 C 291.36014,268.50287 290.72185,266.72817 289.66562,265.44994 C 285.74013,260.8725 281.31353,258.81592 276.35292,259.27457 z M 276.16088,270.43341 C 277.64905,270.29586 278.48826,271.1666 278.66031,273.02678 C 278.95846,276.25125 277.76341,281.10399 275.11243,287.6029 C 272.5177,294.03418 269.95089,298.41291 267.41178,300.71144 L 265.05861,279.33731 C 266.60559,277.13055 268.47767,275.15534 270.62865,273.39291 C 272.83584,271.56287 274.67268,270.5711 276.16088,270.43341 z"
       id="path2422" />
    <path
       style="font-size:93.40884399px;font-style:normal;font-variant:normal;font-weight:normal;font-stretch:normal;fill:#000000;fill-opacity:1;stroke:none;stroke-width:1px;stroke-linecap:butt;stroke-linejoin:miter;stroke-opacity:1;font-family:Futura;-inkscape-font-specification:Futura"
       d="M 330.37745,297.93975 C 330.71048,298.70596 330.85201,299.55544 330.80202,300.48817 C 330.7186,302.04277 330.14109,303.50848 329.06949,304.88532 C 328.06,306.26551 326.88901,307.16932 325.55651,307.59674 C 324.28947,307.96531 322.47448,308.08624 320.11156,307.95949 C 317.74857,307.83277 316.0302,307.8965 314.95643,308.15072 C 313.88261,308.40493 312.61835,309.30374 311.16362,310.84712 C 309.91209,312.08961 307.81335,312.8501 304.86741,313.12864 C 303.05074,313.28065 301.24969,312.56042 299.46426,310.96797 C 297.67879,309.37552 296.50243,307.47275 295.93516,305.25965 C 295.83413,304.8177 295.79362,304.41018 295.81364,304.03707 C 295.85699,303.2287 296.34064,302.35039 297.26457,301.40214 C 298.25067,300.45725 298.73265,299.61003 298.7105,298.86048 L 297.82465,242.12585 C 297.83799,241.87719 297.526,241.2992 296.88869,240.39187 C 296.31687,239.42585 296.04765,238.63188 296.08101,238.00998 C 296.1277,237.13949 296.63909,236.32503 297.6152,235.5666 C 298.98441,234.45524 300.88159,233.96455 303.30674,234.09455 C 305.35878,234.20469 307.29419,234.74503 309.11301,235.71557 C 310.99398,236.6896 312.15152,237.78066 312.58563,238.98875 C 312.85985,239.68951 312.98362,240.28859 312.95696,240.78599 C 312.92692,241.3457 312.61707,241.89035 312.02744,242.41991 C 311.43775,242.94961 311.16067,243.46482 311.19619,243.96556 L 311.79254,295.63333 L 317.50909,293.69491 C 318.72056,293.19864 319.93039,292.73346 321.13857,292.29934 C 322.41222,291.80642 323.45326,291.58162 324.26167,291.62496 C 326.50023,291.74505 328.53882,293.84997 330.37745,297.93975"
       id="path2418" />
    <path
       style="font-size:93.40884399px;font-style:normal;font-variant:normal;font-weight:normal;font-stretch:normal;fill:#000000;fill-opacity:1;stroke:none;stroke-width:1px;stroke-linecap:butt;stroke-linejoin:miter;stroke-opacity:1;font-family:Futura;-inkscape-font-specification:Futura"
       d="M 423.74032,290.00858 C 424.72757,294.76446 424.07032,299.25752 421.76854,303.48777 C 419.51498,307.64442 416.16274,310.18474 411.71177,311.10874 C 402.74878,312.96943 395.27771,310.06839 389.29854,302.4056 C 384.10537,300.36728 381.2936,298.31159 380.86324,296.23851 C 380.64806,295.20199 381.11106,294.21547 382.25226,293.27894 C 384.47366,291.4186 386.6209,290.27324 388.69396,289.84286 C 393.20593,288.90621 396.78101,290.96244 399.41921,296.01157 C 400.45465,297.32303 401.52059,298.62815 402.61704,299.92692 C 403.71344,301.22573 404.93236,301.73589 406.27377,301.45741 C 409.87113,300.71062 411.13819,297.77637 410.07497,292.65466 C 409.12562,288.08174 407.66328,285.17351 405.68794,283.92995 C 404.81701,283.41118 401.59921,282.61638 396.03451,281.54555 C 391.59493,280.68642 387.69484,278.44325 384.33425,274.81605 C 381.29349,271.50413 379.31859,267.8119 378.40954,263.73934 C 376.98154,257.16702 377.41266,250.9719 379.7029,245.15397 C 382.10012,238.93237 385.92054,235.27725 391.16419,234.18861 C 397.26143,232.92292 402.21873,234.43781 406.0361,238.73328 C 408.49814,241.40225 410.31945,244.96736 411.50005,249.42864 C 412.6517,251.60642 413.42374,253.64036 413.81616,255.53045 C 414.06928,256.74995 414.12571,257.78765 413.98542,258.64352 C 413.53914,261.08942 411.97462,262.59082 409.29186,263.14771 C 407.27974,263.56547 405.29866,263.21353 403.34865,262.09189 C 401.19035,260.88638 399.60035,258.89505 398.57865,256.11789 C 398.19319,255.18037 398.17359,254.16683 398.51983,253.07729 C 398.92702,251.97522 399.11796,251.36317 399.09266,251.24116 C 399.06733,251.11928 398.98104,251.01 398.8338,250.91331 C 398.83147,250.59584 398.79866,250.28466 398.73539,249.97973 C 398.35564,248.15062 397.11142,247.51851 395.00271,248.08341 C 392.95495,248.63579 391.62397,250.34309 391.00978,253.20535 C 390.44158,255.67657 390.52224,258.36283 391.25176,261.26415 C 392.51057,266.40889 396.78576,269.84619 404.07732,271.57606 C 409.82725,272.92644 413.95509,274.58172 416.46086,276.54191 C 420.03537,279.36149 422.46185,283.85038 423.74032,290.00858"
       id="path2412" />
    <path
       style="font-size:93.40884399px;font-style:normal;font-variant:normal;font-weight:normal;font-stretch:normal;fill:#000000;fill-opacity:1;stroke:none;stroke-width:1px;stroke-linecap:butt;stroke-linejoin:miter;stroke-opacity:1;font-family:Futura;-inkscape-font-specification:Futura"
       d="M 445.5487,322.74403 C 444.98823,324.30084 443.36915,325.07925 440.69144,325.07925 C 439.94416,325.07925 439.13462,325.01697 438.26281,324.89243 C 433.15646,324.08289 430.16738,322.55721 429.29556,320.3154 C 429.10874,319.87949 429.01533,319.44358 429.01534,319.00767 C 429.01533,317.69995 429.73147,316.39223 431.16374,315.0845 C 430.91465,305.74363 430.35419,286.68825 429.48238,257.91829 C 429.54465,257.10881 429.3267,256.17472 428.82852,255.11602 C 428.33034,253.99519 428.08125,253.18564 428.08125,252.68739 C 428.08125,251.56656 428.79738,250.38338 430.22965,249.13786 C 431.22601,248.26612 432.62714,247.83021 434.43305,247.83013 C 436.48803,247.83021 438.66757,248.35953 440.97167,249.41808 C 443.71164,250.72588 445.08164,252.31383 445.08166,254.18193 C 445.08164,254.61791 444.42778,256.29927 443.12007,259.22601 L 444.05416,315.83177 C 444.05414,316.57905 444.33437,317.54427 444.89484,318.72745 C 445.45527,319.84836 445.7355,320.75131 445.73552,321.4363 C 445.7355,321.87221 445.67323,322.30812 445.5487,322.74403"
       id="path2410" />
    <path
       style="font-size:93.40884399px;font-style:normal;font-variant:normal;font-weight:normal;font-stretch:normal;fill:#000000;fill-opacity:1;stroke:none;stroke-width:1px;stroke-linecap:butt;stroke-linejoin:miter;stroke-opacity:1;font-family:Futura;-inkscape-font-specification:Futura"
       d="M 548.47624,310.28033 C 547.8774,312.44428 546.71263,314.13442 544.9819,315.35077 C 543.26433,316.50625 541.38444,316.79786 539.34223,316.22558 C 534.23654,314.79487 531.25745,311.50111 530.40497,306.34429 C 530.25973,305.54788 530.33563,304.32162 530.63264,302.66553 C 530.82897,301.17873 530.78317,299.92596 530.49523,298.90725 C 528.99929,294.94868 527.65942,291.15156 526.47562,287.51588 C 523.54763,278.72041 521.55828,271.46774 520.50759,265.75786 C 518.9124,271.91117 516.85467,283.69962 514.33437,301.12324 C 514.25483,301.48831 514.38015,302.376 514.71033,303.78629 C 515.04045,305.19659 515.11277,306.32766 514.92725,307.1795 C 514.68869,308.27473 514.10494,309.19916 513.17602,309.95283 C 511.85006,311.06615 510.15271,311.3975 508.08396,310.94693 C 505.89349,310.46982 503.88586,309.29962 502.06107,307.43632 C 500.28386,305.64713 499.47235,303.81333 499.62656,301.93493 C 499.76207,300.43488 500.40275,299.39538 501.54857,298.81641 C 502.69439,298.23746 503.30314,297.63713 503.37482,297.0154 L 512.80268,240.56238 C 512.86892,240.25821 512.90747,239.78862 512.91832,239.15359 C 512.92914,238.51869 512.96769,238.04909 513.03397,237.74479 C 513.23274,236.83217 513.84812,236.20142 514.88011,235.85252 C 515.97289,235.51701 517.37114,235.53477 519.07485,235.90577 C 523.63827,236.89979 526.63511,238.7953 528.06536,241.59232 C 528.48041,242.32011 528.59519,243.1099 528.40969,243.96168 C 528.33014,244.32682 528.16327,244.80033 527.90908,245.38223 C 527.65484,245.96424 527.50122,246.37691 527.44825,246.62023 C 527.40845,246.80284 527.39911,246.99199 527.42023,247.18773 C 527.28535,253.65913 530.83812,268.07169 538.07854,290.42546 L 550.68425,223.64763 C 550.80347,223.10006 550.72303,222.44522 550.44294,221.68309 C 550.16275,220.92107 550.06243,220.3575 550.142,219.99236 C 550.31423,219.20143 551.14136,218.32999 552.62339,217.37806 C 553.45167,216.79375 554.56557,216.65398 555.96508,216.95872 C 558.21633,217.44913 560.35618,218.74373 562.38468,220.84251 C 564.41304,222.94142 565.25888,224.91016 564.92221,226.74874 C 564.73119,227.91812 564.04564,228.72479 562.86554,229.16875 C 561.74616,229.62607 561.11362,230.18935 560.9679,230.85861 L 547.352,303.15234 C 547.1664,304.00419 547.35378,305.19219 547.91412,306.71634 C 548.54845,308.19289 548.73582,309.38089 548.47624,310.28033"
       id="path2404"
       sodipodi:nodetypes="ccsccccccsscsccsccsscscssscccsscsscccccc" />
    <g
       id="g2441"
       transform="matrix(0.979364,0.2021043,-0.2021043,0.979364,56.633708,-118.52143)">
      <path
         id="path2402"
         d="M 591.71616,245.24269 C 591.84069,245.67867 591.90296,246.11457 591.90298,246.55041 C 591.90296,247.17321 591.68501,248.10729 591.24911,249.35268 C 590.81319,250.53592 590.59524,251.53228 590.59525,252.34176 L 590.59525,283.3535 C 590.59524,284.28762 590.81319,285.5642 591.24911,287.18326 C 591.74728,288.80237 591.99637,289.95441 591.99639,290.63939 C 591.99637,291.82259 591.49819,292.78781 590.50184,293.53506 C 589.56774,294.22008 588.35343,294.56258 586.8589,294.56256 C 583.62072,294.56258 581.12982,293.44167 579.38619,291.19984 C 578.82574,290.45259 578.54551,289.61192 578.54551,288.6778 C 578.54551,288.36647 578.60778,287.80601 578.73233,286.99644 C 578.85687,286.12466 578.88801,285.40852 578.82574,284.84804 C 578.26528,277.06401 577.98506,269.03085 577.98506,260.74856 C 577.98506,249.97547 578.4521,244.05958 579.38619,243.00088 C 580.07119,242.19141 581.628,241.78664 584.05663,241.78656 C 588.54025,241.78664 591.09342,242.93868 591.71616,245.24269"
         style="font-size:93.40884399px;font-style:normal;font-variant:normal;font-weight:normal;font-stretch:normal;fill:#000000;fill-opacity:1;stroke:none;stroke-width:1px;stroke-linecap:butt;stroke-linejoin:miter;stroke-opacity:1;font-family:Futura;-inkscape-font-specification:Futura" />
      <path
         id="text2387"
         d="M 591.71616,304.09026 C 592.02751,304.77527 592.18319,305.52254 592.1832,306.33207 C 592.18319,306.89253 592.05864,307.79549 591.80957,309.04093 C 591.62273,310.28639 591.52933,311.25161 591.52934,311.9366 C 591.52933,311.81206 591.62273,312.74615 591.80957,314.73887 C 591.87182,315.7975 591.65387,316.70045 591.15571,317.44772 C 590.47069,318.56863 589.19411,319.12908 587.32594,319.12908 C 584.08776,319.12908 581.628,318.03931 579.94664,315.85977 C 579.51073,315.23705 579.29278,314.27183 579.29278,312.9641 C 579.29278,312.46592 579.35505,311.34502 579.4796,309.60138 C 579.60414,308.04458 579.63528,306.76799 579.57301,305.77162 C 579.57301,305.58481 579.4796,304.93095 579.29278,303.81003 C 579.10596,303.06278 579.1371,302.40891 579.38619,301.84845 C 579.88437,300.66528 581.2855,300.0737 583.58959,300.07368 C 587.82411,300.0737 590.53297,301.41255 591.71616,304.09026"
         style="font-size:93.40884399px;font-style:normal;font-variant:normal;font-weight:normal;font-stretch:normal;fill:#000000;fill-opacity:1;stroke:none;stroke-width:1px;stroke-linecap:butt;stroke-linejoin:miter;stroke-opacity:1;font-family:Futura;-inkscape-font-specification:Futura" />
    </g>
    <text
       xml:space="preserve"
       style="font-size:36px;font-style:normal;font-variant:normal;font-weight:normal;font-stretch:normal;fill:#000000;fill-opacity:1;stroke:none;stroke-width:1px;stroke-linecap:butt;stroke-linejoin:miter;stroke-opacity:1;font-family:Euphemia UCAS;-inkscape-font-specification:Euphemia UCAS"
       x="330.31989"
       y="371.33661"
       id="text2391"><tspan
         sodipodi:role="line"
         id="tspan2393"
         x="330.31989"
         y="371.33661"
         style="font-size:14px;text-align:center;text-anchor:middle">Get the presents to the kids before the sleigh departs.</tspan><tspan
         sodipodi:role="line"
         x="330.31989"
         y="388.83661"
         style="font-size:14px;text-align:center;text-anchor:middle"
         id="tspan2395">Don't send too many broken ones, or too much coal...</tspan><tspan
         sodipodi:role="line"
         x="330.31989"
         y="406.33661"
         style="font-size:14px;text-align:center;text-anchor:middle"
         id="tspan2397">The children of the world are counting on your skills!</tspan><tspan
         sodipodi:role="line"
         x="330.31989"
         y="423.83661"
         style="font-size:14px;text-align:center;text-anchor:middle"
         id="tspan2745" /><tspan
         sodipodi:role="line"
         x="330.31989"
         y="441.33661"
         style="font-size:14px;font-weight:bold;text-align:center;text-anchor:middle;-inkscape-font-specification:Euphemia UCAS Bold"
         id="tspan2747">Click to begin</tspan></text>
    <g
       id="g2587"
       style="opacity:1;fill:#00100f;fill-opacity:1;stroke:none;stroke-width:1.79999994999999990;stroke-miterlimit:4;stroke-dasharray:none;stroke-opacity:1;filter:url(#filter2805)">
      <path
         d="M 150.7976,280.28251 L 166.651,250.79056 L 172.93491,301.51751 L 156.30085,324.70757 L 150.7976,280.28251 z"
         style="fill:#e9e9ff;fill-rule:evenodd;stroke:none;stroke-width:1px;stroke-linecap:butt;stroke-linejoin:round;stroke-opacity:1"
         id="path2765" />
      <path
         d="M 113.6153,270.59502 L 119.5556,318.5482 L 156.30085,324.70757 L 150.7976,280.28251 L 113.6153,270.59502 z"
         style="fill:#353564;fill-rule:evenodd;stroke:none;stroke-width:1px;stroke-linecap:butt;stroke-linejoin:round;stroke-opacity:1"
         id="path2767" />
      <path
         d="M 113.6153,270.59502 L 125.16449,236.89793 L 166.651,250.79056 L 150.7976,280.28251 L 113.6153,270.59502 z"
         style="fill:#4d4d9f;fill-rule:evenodd;stroke:none;stroke-width:1px;stroke-linecap:butt;stroke-linejoin:round;stroke-opacity:1"
         id="path2769" />
      <path
         d="M 119.5556,318.5482 L 132.02473,292.27737 L 172.93491,301.51751 L 156.30085,324.70757 L 119.5556,318.5482 z"
         style="fill:#afafde;fill-rule:evenodd;stroke:none;stroke-width:1px;stroke-linecap:butt;stroke-linejoin:round;stroke-opacity:1"
         id="path2771" />
      <path
         d="M 125.16449,236.89793 L 132.02473,292.27737 L 172.93491,301.51751 L 166.651,250.79056 L 125.16449,236.89793 z"
         style="fill:#d7d7ff;fill-rule:evenodd;stroke:none;stroke-width:1px;stroke-linecap:butt;stroke-linejoin:round;stroke-opacity:1"
         id="path2773" />
      <path
         d="M 113.6153,270.59502 L 125.16449,236.89793 L 132.02473,292.27737 L 119.5556,318.5482 L 113.6153,270.59502 z"
         style="fill:#8686bf;fill-rule:evenodd;stroke:none;stroke-width:1px;stroke-linecap:butt;stroke-linejoin:round;stroke-opacity:1"
         id="path2775" />
    </g>
    <g
       id="g2713"
       style="opacity:1;fill:#550000;fill-opacity:1;stroke:none;stroke-width:1.79999994999999990;stroke-miterlimit:4;stroke-dasharray:none;stroke-opacity:1;filter:url(#filter2813)">
      <path
         d="M 359.64058,263.76037 L 378.17444,248.111 L 384.14251,307.38794 L 365.17593,318.73928 L 359.64058,263.76037 z"
         style="fill:#e9e9ff;fill-rule:evenodd;stroke:none;stroke-width:1px;stroke-linecap:butt;stroke-linejoin:round;stroke-opacity:1"
         id="path2793" />
      <path
         d="M 319.78156,234.68315 L 326.41492,300.56787 L 365.17593,318.73928 L 359.64058,263.76037 L 319.78156,234.68315 z"
         style="fill:#353564;fill-rule:evenodd;stroke:none;stroke-width:1px;stroke-linecap:butt;stroke-linejoin:round;stroke-opacity:1"
         id="path2795" />
      <path
         d="M 319.78156,234.68315 L 338.54876,212.86716 L 378.17444,248.111 L 359.64058,263.76037 L 319.78156,234.68315 z"
         style="fill:#4d4d9f;fill-rule:evenodd;stroke:none;stroke-width:1px;stroke-linecap:butt;stroke-linejoin:round;stroke-opacity:1"
         id="path2797" />
      <path
         d="M 326.41492,300.56787 L 345.81334,285.02139 L 384.14251,307.38794 L 365.17593,318.73928 L 326.41492,300.56787 z"
         style="fill:#afafde;fill-rule:evenodd;stroke:none;stroke-width:1px;stroke-linecap:butt;stroke-linejoin:round;stroke-opacity:1"
         id="path2799" />
      <path
         d="M 338.54876,212.86716 L 345.81334,285.02139 L 384.14251,307.38794 L 378.17444,248.111 L 338.54876,212.86716 z"
         style="fill:#d7d7ff;fill-rule:evenodd;stroke:none;stroke-width:1px;stroke-linecap:butt;stroke-linejoin:round;stroke-opacity:1"
         id="path2801" />
      <path
         d="M 319.78156,234.68315 L 338.54876,212.86716 L 345.81334,285.02139 L 326.41492,300.56787 L 319.78156,234.68315 z"
         style="fill:#8686bf;fill-rule:evenodd;stroke:none;stroke-width:1px;stroke-linecap:butt;stroke-linejoin:round;stroke-opacity:1"
         id="path2803" />
    </g>
    <g
       id="g2729"
       style="opacity:1;fill:#550000;fill-opacity:1;stroke:none;stroke-width:1.79999994999999990;stroke-miterlimit:4;stroke-dasharray:none;stroke-opacity:1;filter:url(#filter2809)">
      <path
         d="M 470.66666,290.61483 L 509.60615,272.712 L 511.98534,292.92209 L 472.81142,308.83349 L 470.66666,290.61483 z"
         style="fill:#e9e9ff;fill-rule:evenodd;stroke:none;stroke-width:1px;stroke-linecap:butt;stroke-linejoin:round;stroke-opacity:1"
         id="path2779" />
      <path
         d="M 436.38361,259.4773 L 439.25121,283.8361 L 472.81142,308.83349 L 470.66666,290.61483 L 436.38361,259.4773 z"
         style="fill:#353564;fill-rule:evenodd;stroke:none;stroke-width:1px;stroke-linecap:butt;stroke-linejoin:round;stroke-opacity:1"
         id="path2781" />
      <path
         d="M 436.38361,259.4773 L 485.236,229.90054 L 509.60615,272.712 L 470.66666,290.61483 L 436.38361,259.4773 z"
         style="fill:#4d4d9f;fill-rule:evenodd;stroke:none;stroke-width:1px;stroke-linecap:butt;stroke-linejoin:round;stroke-opacity:1"
         id="path2783" />
      <path
         d="M 439.25121,283.8361 L 488.53871,257.95545 L 511.98534,292.92209 L 472.81142,308.83349 L 439.25121,283.8361 z"
         style="fill:#afafde;fill-rule:evenodd;stroke:none;stroke-width:1px;stroke-linecap:butt;stroke-linejoin:round;stroke-opacity:1"
         id="path2785" />
      <path
         d="M 485.236,229.90054 L 488.53871,257.95545 L 511.98534,292.92209 L 509.60615,272.712 L 485.236,229.90054 z"
         style="fill:#d7d7ff;fill-rule:evenodd;stroke:none;stroke-width:1px;stroke-linecap:butt;stroke-linejoin:round;stroke-opacity:1"
         id="path2787" />
      <path
         d="M 436.38361,259.4773 L 485.236,229.90054 L 488.53871,257.95545 L 439.25121,283.8361 L 436.38361,259.4773 z"
         style="fill:#8686bf;fill-rule:evenodd;stroke:none;stroke-width:1px;stroke-linecap:butt;stroke-linejoin:round;stroke-opacity:1"
         id="path2789" />
    </g>
  </g>
</svg>
